<?xml version="1.0" encoding="UTF-8"?><svg id="uuid-1095f2de-dea5-49f1-a7d4-5c161feb073d" xmlns="http://www.w3.org/2000/svg" viewBox="0 0 154.81 41.75"><defs><style>.uuid-2865ae29-2c73-4cee-a5b5-7c873ca429bd{fill:#0086ff;}.uuid-23b49517-0c13-44c8-a491-539df90bbeba{fill:#ff1066;}</style></defs><g><path class="uuid-23b49517-0c13-44c8-a491-539df90bbeba" d="m20.55,38.47c-9.44-.17-17.12-7.88-17.26-17.32C3.14,11.32,11.09,3.28,20.88,3.28c9,0,16.45,6.8,17.47,15.53.03.24.24.42.48.42h2.33c.29,0,.51-.25.48-.54C40.55,8.21,31.65,0,20.88,0,9.37,0,0,9.37,0,20.88s9.37,20.88,20.88,20.88c10.78,0,19.67-8.21,20.76-18.69.03-.29-.19-.54-.48-.54h-2.33c-.24,0-.45.18-.48.42-1.04,8.84-8.65,15.69-17.8,15.52Z"/><path class="uuid-23b49517-0c13-44c8-a491-539df90bbeba" d="m20.22,31.88c-5.59-.33-10.09-4.87-10.36-10.46-.3-6.32,4.75-11.57,11.01-11.57,5.38,0,9.88,3.88,10.84,8.99.04.23.24.39.48.39h2.35c.3,0,.53-.27.48-.56-1.06-6.85-7-12.11-14.14-12.11-8.08,0-14.62,6.73-14.3,14.88.29,7.47,6.37,13.5,13.84,13.73,7.35.23,13.52-5.1,14.6-12.1.05-.29-.18-.56-.48-.56h-2.35c-.23,0-.43.16-.48.39-1,5.32-5.82,9.3-11.49,8.97Z"/><path class="uuid-23b49517-0c13-44c8-a491-539df90bbeba" d="m20.88,25.34c-2.46,0-4.46-2-4.46-4.46s2-4.46,4.46-4.46c1.77,0,3.31,1.04,4.02,2.54.08.17.25.27.44.27h2.48c.33,0,.56-.32.46-.63-1.04-3.38-4.34-5.78-8.12-5.43-3.74.34-6.72,3.38-7,7.12-.34,4.53,3.26,8.33,7.72,8.33,3.48,0,6.43-2.3,7.4-5.47.1-.31-.13-.63-.46-.63h-2.48c-.19,0-.36.11-.44.27-.72,1.5-2.25,2.54-4.02,2.54Z"/><path class="uuid-23b49517-0c13-44c8-a491-539df90bbeba" d="m48.57,21.21c-.18-.18-.18-.48,0-.67l2.62-2.62c.64-.64.64-1.68,0-2.32-.64-.64-1.68-.64-2.32,0l-3.87,3.87c-.78.78-.78,2.03,0,2.81l3.87,3.87c.32.32.74.48,1.16.48.46,0,.92-.19,1.24-.57.57-.66.5-1.66-.12-2.27l-2.58-2.58Z"/><path class="uuid-23b49517-0c13-44c8-a491-539df90bbeba" d="m56.61,21.21c-.18-.18-.18-.48,0-.67l2.62-2.62c.64-.64.64-1.68,0-2.32-.64-.64-1.68-.64-2.32,0l-3.87,3.87c-.78.78-.78,2.03,0,2.81l3.87,3.87c.32.32.74.48,1.16.48.46,0,.92-.19,1.24-.57.57-.66.5-1.66-.12-2.27l-2.58-2.58Z"/></g><g><path class="uuid-2865ae29-2c73-4cee-a5b5-7c873ca429bd" d="m65.72,11.12c0-3.8,2.94-6.5,7.05-6.5,2.65,0,4.74,1.15,5.66,3.22l-2.84,1.53c-.68-1.2-1.69-1.74-2.84-1.74-1.86,0-3.31,1.29-3.31,3.5s1.46,3.5,3.31,3.5c1.15,0,2.16-.52,2.84-1.74l2.84,1.55c-.92,2.02-3.01,3.19-5.66,3.19-4.11,0-7.05-2.7-7.05-6.5Z"/><path class="uuid-2865ae29-2c73-4cee-a5b5-7c873ca429bd" d="m78.85,11.12c0-3.8,2.93-6.5,6.95-6.5s6.93,2.7,6.93,6.5-2.91,6.5-6.93,6.5-6.95-2.7-6.95-6.5Zm10.17,0c0-2.18-1.39-3.5-3.22-3.5s-3.24,1.31-3.24,3.5,1.41,3.5,3.24,3.5,3.22-1.32,3.22-3.5Z"/><path class="uuid-2865ae29-2c73-4cee-a5b5-7c873ca429bd" d="m115.93,10.2v7.23h-3.66v-6.67c0-2.04-.92-2.98-2.4-2.98-1.64,0-2.79,1.06-2.79,3.31v6.34h-3.66v-6.67c0-2.04-.87-2.98-2.4-2.98-1.62,0-2.77,1.06-2.77,3.31v6.34h-3.66V4.8h3.5v1.46c.94-1.08,2.35-1.64,3.97-1.64,1.76,0,3.26.68,4.16,2.07,1.01-1.29,2.65-2.07,4.56-2.07,3.01,0,5.17,1.74,5.17,5.59Z"/><path class="uuid-2865ae29-2c73-4cee-a5b5-7c873ca429bd" d="m132.4,11.12c0,3.97-2.75,6.5-6.29,6.5-1.57,0-2.86-.49-3.8-1.53v5.89h-3.66V4.8h3.5v1.46c.92-1.1,2.28-1.64,3.97-1.64,3.55,0,6.29,2.54,6.29,6.5Zm-3.71,0c0-2.18-1.38-3.5-3.22-3.5s-3.22,1.31-3.22,3.5,1.38,3.5,3.22,3.5,3.22-1.32,3.22-3.5Z"/><path class="uuid-2865ae29-2c73-4cee-a5b5-7c873ca429bd" d="m142.1,4.62v3.38c-.31-.02-.54-.05-.82-.05-2.02,0-3.36,1.1-3.36,3.52v5.96h-3.66V4.8h3.5v1.67c.89-1.22,2.4-1.85,4.34-1.85Z"/><path class="uuid-2865ae29-2c73-4cee-a5b5-7c873ca429bd" d="m154.81,10.23v7.21h-3.43v-1.57c-.68,1.15-2,1.76-3.85,1.76-2.96,0-4.72-1.64-4.72-3.83s1.57-3.78,5.42-3.78h2.91c0-1.57-.94-2.49-2.91-2.49-1.34,0-2.72.45-3.64,1.17l-1.31-2.56c1.38-.99,3.43-1.53,5.45-1.53,3.85,0,6.08,1.78,6.08,5.61Zm-3.66,3.22v-1.29h-2.51c-1.71,0-2.25.63-2.25,1.48,0,.92.77,1.53,2.07,1.53,1.22,0,2.28-.56,2.7-1.71Z"/><path class="uuid-2865ae29-2c73-4cee-a5b5-7c873ca429bd" d="m65.72,30.69c0-3.8,2.94-6.5,7.05-6.5,2.65,0,4.74,1.15,5.66,3.22l-2.84,1.53c-.68-1.2-1.69-1.74-2.84-1.74-1.86,0-3.31,1.29-3.31,3.5s1.46,3.5,3.31,3.5c1.15,0,2.16-.52,2.84-1.74l2.84,1.55c-.92,2.02-3.01,3.19-5.66,3.19-4.11,0-7.05-2.7-7.05-6.5Z"/><path class="uuid-2865ae29-2c73-4cee-a5b5-7c873ca429bd" d="m92.1,31.73h-9.56c.35,1.57,1.69,2.54,3.62,2.54,1.34,0,2.3-.4,3.17-1.22l1.95,2.11c-1.17,1.34-2.94,2.04-5.21,2.04-4.37,0-7.21-2.75-7.21-6.5s2.89-6.5,6.74-6.5,6.58,2.49,6.58,6.55c0,.28-.05.68-.07.99Zm-9.6-2.14h6.22c-.26-1.6-1.46-2.63-3.1-2.63s-2.87,1.01-3.12,2.63Z"/><path class="uuid-2865ae29-2c73-4cee-a5b5-7c873ca429bd" d="m101.87,24.19v3.38c-.31-.02-.54-.05-.82-.05-2.02,0-3.36,1.1-3.36,3.52v5.96h-3.66v-12.63h3.5v1.67c.89-1.22,2.4-1.86,4.34-1.86Z"/><path class="uuid-2865ae29-2c73-4cee-a5b5-7c873ca429bd" d="m112.06,36.4c-.75.54-1.86.8-2.98.8-2.98,0-4.72-1.53-4.72-4.53v-5.19h-1.95v-2.82h1.95v-3.08h3.66v3.08h3.15v2.82h-3.15v5.14c0,1.08.59,1.67,1.57,1.67.54,0,1.08-.17,1.48-.47l.99,2.58Z"/><path class="uuid-2865ae29-2c73-4cee-a5b5-7c873ca429bd" d="m124.72,29.8v7.21h-3.43v-1.57c-.68,1.15-2,1.76-3.85,1.76-2.96,0-4.72-1.64-4.72-3.83s1.57-3.78,5.42-3.78h2.91c0-1.57-.94-2.49-2.91-2.49-1.34,0-2.72.45-3.64,1.17l-1.31-2.56c1.38-.99,3.43-1.53,5.45-1.53,3.85,0,6.08,1.79,6.08,5.61Zm-3.66,3.22v-1.29h-2.51c-1.71,0-2.25.63-2.25,1.48,0,.92.77,1.53,2.07,1.53,1.22,0,2.28-.56,2.7-1.71Z"/></g></svg>