<?xml version="1.0" encoding="utf-8"?>
<!-- Generator: Adobe Illustrator 27.2.0, SVG Export Plug-In . SVG Version: 6.00 Build 0)  -->
<svg version="1.1" id="uuid-1095f2de-dea5-49f1-a7d4-5c161feb073d"
	 xmlns="http://www.w3.org/2000/svg" xmlns:xlink="http://www.w3.org/1999/xlink" x="0px" y="0px" viewBox="0 0 132.8 41.8"
	 style="enable-background:new 0 0 132.8 41.8;" xml:space="preserve">
<style type="text/css">
	.st0{fill:#FF1066;}
	.st1{fill:#0086FF;}
</style>
<g>
	<g>
		<g>
			<path class="st0" d="M20.5,38.4c-9.4-0.2-17-7.8-17.2-17.2C3.1,11.4,11,3.4,20.8,3.4c9,0,16.4,6.8,17.4,15.5
				c0,0.2,0.2,0.4,0.5,0.4H41c0.3,0,0.5-0.3,0.5-0.5C40.4,8.3,31.5,0.1,20.8,0.1C9.3,0.1,0,9.4,0,20.9c0,11.5,9.3,20.8,20.8,20.8
				c10.7,0,19.6-8.2,20.7-18.6c0-0.3-0.2-0.5-0.5-0.5h-2.3c-0.2,0-0.5,0.2-0.5,0.4C37.1,31.7,29.6,38.6,20.5,38.4z"/>
		</g>
		<g>
			<path class="st0" d="M20.1,31.8c-5.6-0.3-10-4.9-10.3-10.4c-0.3-6.3,4.7-11.5,11-11.5c5.4,0,9.8,3.9,10.8,9
				c0,0.2,0.2,0.4,0.5,0.4h2.3c0.3,0,0.5-0.3,0.5-0.6c-1.1-6.8-7-12.1-14.1-12.1c-8,0-14.6,6.7-14.2,14.8
				c0.3,7.4,6.3,13.4,13.8,13.7c7.3,0.2,13.5-5.1,14.5-12c0-0.3-0.2-0.6-0.5-0.6H32c-0.2,0-0.4,0.2-0.5,0.4
				C30.6,28.2,25.8,32.2,20.1,31.8z"/>
		</g>
		<g>
			<path class="st0" d="M20.8,25.3c-2.4,0-4.4-2-4.4-4.4s2-4.4,4.4-4.4c1.8,0,3.3,1,4,2.5c0.1,0.2,0.2,0.3,0.4,0.3h2.5
				c0.3,0,0.6-0.3,0.5-0.6c-1-3.4-4.3-5.8-8.1-5.4c-3.7,0.3-6.7,3.4-7,7.1c-0.3,4.5,3.2,8.3,7.7,8.3c3.5,0,6.4-2.3,7.4-5.4
				c0.1-0.3-0.1-0.6-0.5-0.6h-2.5c-0.2,0-0.4,0.1-0.4,0.3C24.1,24.3,22.6,25.3,20.8,25.3z"/>
		</g>
		<path class="st0" d="M48.4,21.2c-0.2-0.2-0.2-0.5,0-0.7l2.6-2.6c0.6-0.6,0.6-1.7,0-2.3c-0.6-0.6-1.7-0.6-2.3,0l-3.9,3.9
			c-0.8,0.8-0.8,2,0,2.8l3.9,3.9c0.3,0.3,0.7,0.5,1.2,0.5c0.5,0,0.9-0.2,1.2-0.6c0.6-0.7,0.5-1.6-0.1-2.3L48.4,21.2z"/>
		<path class="st0" d="M56.4,21.2c-0.2-0.2-0.2-0.5,0-0.7l2.6-2.6c0.6-0.6,0.6-1.7,0-2.3c-0.6-0.6-1.7-0.6-2.3,0l-3.9,3.9
			c-0.8,0.8-0.8,2,0,2.8l3.9,3.9c0.3,0.3,0.7,0.5,1.2,0.5c0.5,0,0.9-0.2,1.2-0.6c0.6-0.7,0.5-1.6-0.1-2.3L56.4,21.2z"/>
	</g>
</g>
<g>
	<path class="st1" d="M74.9,19.1c-0.8,0.5-2,0.8-3.3,0.8c-3.5,0-5.5-1.7-5.5-5.1v-4.5h-2V6.7h2V3.2h4.7v3.5h3.1v3.5h-3.1v4.5
		c0,1,0.6,1.5,1.4,1.5c0.5,0,1-0.1,1.4-0.4L74.9,19.1z"/>
	<path class="st1" d="M76.1,4.7c0-1.4,1.1-2.5,2.9-2.5c1.7,0,2.9,1,2.9,2.4c0,1.5-1.1,2.6-2.9,2.6C77.3,7.2,76.1,6.1,76.1,4.7z
		 M76.7,7.9h4.7v11.8h-4.7V7.9z"/>
	<path class="st1" d="M93.5,5.9v4.2c-0.4,0-0.7-0.1-1.1-0.1c-1.9,0-3.2,1-3.2,3.3v6.2h-4.7V6.2h4.5v1.6C89.9,6.6,91.5,5.9,93.5,5.9z
		"/>
	<path class="st1" d="M94.4,12.9c0-4,3.2-6.9,7.6-6.9c4.4,0,7.6,2.9,7.6,6.9c0,4.1-3.2,7-7.6,7C97.6,19.9,94.4,17,94.4,12.9z
		 M104.9,12.9c0-2-1.2-3.2-2.8-3.2c-1.6,0-2.8,1.1-2.8,3.2c0,2.1,1.2,3.2,2.8,3.2C103.6,16.1,104.9,14.9,104.9,12.9z"/>
	<path class="st1" d="M64.7,31.7c0-4,3.2-6.9,7.7-6.9c3.1,0,5.4,1.4,6.3,3.7l-3.7,1.9c-0.6-1.3-1.6-1.8-2.7-1.8
		c-1.6,0-2.9,1.1-2.9,3.2c0,2.1,1.3,3.2,2.9,3.2c1.1,0,2-0.5,2.7-1.8l3.7,1.9c-0.9,2.3-3.3,3.7-6.3,3.7
		C67.9,38.7,64.7,35.8,64.7,31.7z"/>
	<path class="st1" d="M94.1,32.9h-9.8c0.4,1.4,1.6,2.2,3.3,2.2c1.3,0,2.2-0.4,3.1-1.2l2.5,2.6c-1.3,1.4-3.2,2.2-5.7,2.2
		c-4.8,0-7.9-3-7.9-7c0-4,3.2-6.9,7.4-6.9c4,0,7.2,2.5,7.2,7C94.2,32.1,94.1,32.6,94.1,32.9z M84.2,30.5h5.5
		c-0.2-1.4-1.3-2.3-2.8-2.3S84.5,29,84.2,30.5z"/>
	<path class="st1" d="M105.3,24.8V29c-0.4,0-0.7-0.1-1.1-0.1c-1.9,0-3.2,1-3.2,3.3v6.2h-4.7V25h4.5v1.6
		C101.8,25.4,103.4,24.8,105.3,24.8z"/>
	<path class="st1" d="M117,37.9c-0.8,0.5-2,0.8-3.3,0.8c-3.5,0-5.5-1.7-5.5-5.1V29h-2v-3.5h2V22h4.7v3.5h3.1V29H113v4.5
		c0,1,0.6,1.5,1.4,1.5c0.5,0,1-0.1,1.4-0.4L117,37.9z"/>
	<path class="st1" d="M117.6,31.7c0-4,3.2-6.9,7.6-6.9c4.4,0,7.6,2.9,7.6,6.9c0,4.1-3.2,7-7.6,7C120.8,38.7,117.6,35.8,117.6,31.7z
		 M128,31.7c0-2-1.2-3.2-2.8-3.2c-1.6,0-2.8,1.1-2.8,3.2c0,2.1,1.2,3.2,2.8,3.2C126.8,35,128,33.8,128,31.7z"/>
</g>
</svg>
